<svg width="573" height="580" viewBox="0 0 573 580" fill="none" xmlns="http://www.w3.org/2000/svg">
<g opacity="0.7" filter="url(#filter0_ng_1_13)">
<path d="M140.205 187.853C201.662 71.1218 279.2 100.451 404.41 111.596C529.621 122.742 660 213.663 660 302.239C660 390.814 611.18 574.417 421.067 540.981C230.954 507.545 100 411.344 100 346.819C100 295.199 125.08 197.239 140.205 187.853Z" fill="#607D5D"/>
<path d="M140.205 187.853C201.662 71.1218 279.2 100.451 404.41 111.596C529.621 122.742 660 213.663 660 302.239C660 390.814 611.18 574.417 421.067 540.981C230.954 507.545 100 411.344 100 346.819C100 295.199 125.08 197.239 140.205 187.853Z" fill="url(#paint0_radial_1_13)" fill-opacity="0.2"/>
</g>
<defs>
<filter id="filter0_ng_1_13" x="0" y="0" width="760" height="645" filterUnits="userSpaceOnUse" color-interpolation-filters="sRGB">
<feFlood flood-opacity="0" result="BackgroundImageFix"/>
<feBlend mode="normal" in="SourceGraphic" in2="BackgroundImageFix" result="shape"/>
<feTurbulence type="fractalNoise" baseFrequency="0.2083333283662796 0.2083333283662796" stitchTiles="stitch" numOctaves="3" result="noise" seed="3370" />
<feColorMatrix in="noise" type="luminanceToAlpha" result="alphaNoise" />
<feComponentTransfer in="alphaNoise" result="coloredNoise1">
<feFuncA type="discrete" tableValues="0 0 0 0 0 0 1 1 1 1 1 1 1 1 1 1 1 1 1 1 1 1 1 1 1 1 1 1 1 1 1 1 1 1 1 1 1 1 1 1 1 1 1 1 1 0 0 0 0 0 0 0 0 0 0 0 0 0 0 0 0 0 0 0 0 0 0 0 0 0 0 0 0 0 0 0 0 0 0 0 0 0 0 0 0 0 0 0 0 0 0 0 0 0 0 0 0 0 0 0 "/>
</feComponentTransfer>
<feComposite operator="in" in2="shape" in="coloredNoise1" result="noise1Clipped" />
<feFlood flood-color="rgba(0, 0, 0, 0.25)" result="color1Flood" />
<feComposite operator="in" in2="noise1Clipped" in="color1Flood" result="color1" />
<feMerge result="effect1_noise_1_13">
<feMergeNode in="shape" />
<feMergeNode in="color1" />
</feMerge>
<feTurbulence type="fractalNoise" baseFrequency="0.99900001287460327 0.99900001287460327" numOctaves="3" seed="1180" />
<feDisplacementMap in="effect1_noise_1_13" scale="200" xChannelSelector="R" yChannelSelector="G" result="displacedImage" width="100%" height="100%" />
<feMerge result="effect2_texture_1_13">
<feMergeNode in="displacedImage"/>
</feMerge>
</filter>
<radialGradient id="paint0_radial_1_13" cx="0" cy="0" r="1" gradientTransform="matrix(-40.7795 181.256 231.773 54.3895 380.287 313.384)" gradientUnits="userSpaceOnUse">
<stop stop-color="#27F913" stop-opacity="0.83"/>
<stop offset="1"/>
</radialGradient>
</defs>
</svg>
